<svg width="85" height="86" viewBox="0 0 85 86" fill="none" xmlns="http://www.w3.org/2000/svg">
<path fill-rule="evenodd" clip-rule="evenodd" d="M59.298 45.5104C55.2463 48.3402 50.317 50 45 50C31.1929 50 20 38.8071 20 25C20 11.1929 31.1929 0 45 0C57.0977 0 67.1883 8.59288 69.5016 20.0081C69.667 20.0027 69.8332 20 70 20C78.2843 20 85 26.7157 85 35C85 43.2843 78.2843 50 70 50C65.8091 50 62.0197 48.2813 59.298 45.5104ZM20 40C20 45.5228 15.5228 50 10 50C4.47715 50 0 45.5228 0 40C0 34.4772 4.47715 30 10 30C15.5228 30 20 34.4772 20 40ZM5 58C2.23858 58 0 60.2386 0 63C0 65.7614 2.23858 68 5 68H80C82.7614 68 85 65.7614 85 63C85 60.2386 82.7614 58 80 58H5ZM35 81C35 78.2386 37.2386 76 40 76H80C82.7614 76 85 78.2386 85 81C85 83.7614 82.7614 86 80 86H40C37.2386 86 35 83.7614 35 81ZM5 76C2.23858 76 0 78.2386 0 81C0 83.7614 2.23858 86 5 86H25C27.7614 86 30 83.7614 30 81C30 78.2386 27.7614 76 25 76H5Z" fill="#007EA7"/>
</svg>
